<svg xmlns="http://www.w3.org/2000/svg" viewBox="0 0 256 256" width="256" height="256" role="img" aria-label="CCHP">
  <!-- CCHP brand mark: beige disc, charcoal angle brackets, coral dot.
       Vector reconstruction of the official cchp-logo.png (cchp-official-website).
       Brackets are filled outlines (not strokes) for maximum renderer compatibility. -->
  <circle cx="128" cy="128" r="128" fill="#E9E3D6"/>
  <path d="M44.5 119.9 L43.1 122.0 L42.1 124.3 L41.6 126.7 L41.6 129.3 L42.1 131.7 L43.1 134.0 L44.5 136.1 L90.5 190.1 L92.2 191.8 L94.3 193.1 L96.6 194.0 L99.0 194.5 L101.5 194.4 L103.8 193.9 L106.1 192.9 L108.1 191.5 L109.8 189.8 L111.1 187.7 L112.0 185.4 L112.5 183.0 L112.4 180.5 L111.9 178.2 L110.9 175.9 L109.5 173.9 L70.4 128.0 L109.5 82.1 L110.9 80.1 L111.9 77.8 L112.4 75.5 L112.5 73.0 L112.0 70.6 L111.1 68.3 L109.8 66.2 L108.1 64.5 L106.1 63.1 L103.8 62.1 L101.5 61.6 L99.0 61.5 L96.6 62.0 L94.3 62.9 L92.2 64.2 L90.5 65.9 L44.5 119.9 Z" fill="#383B42"/>
  <path d="M185.6 128.0 L146.5 173.9 L145.1 175.9 L144.1 178.2 L143.6 180.5 L143.5 183.0 L144.0 185.4 L144.9 187.7 L146.2 189.8 L147.9 191.5 L149.9 192.9 L152.2 193.9 L154.5 194.4 L157.0 194.5 L159.4 194.0 L161.7 193.1 L163.8 191.8 L165.5 190.1 L211.5 136.1 L212.9 134.0 L213.9 131.7 L214.4 129.3 L214.4 126.7 L213.9 124.3 L212.9 122.0 L211.5 119.9 L165.5 65.9 L163.8 64.2 L161.7 62.9 L159.4 62.0 L157.0 61.5 L154.5 61.6 L152.2 62.1 L149.9 63.1 L147.9 64.5 L146.2 66.2 L144.9 68.3 L144.0 70.6 L143.5 73.0 L143.6 75.5 L144.1 77.8 L145.1 80.1 L146.5 82.1 L185.6 128.0 Z" fill="#383B42"/>
  <circle cx="128" cy="128" r="23" fill="#F26D21"/>
</svg>
